<?xml version="1.0" standalone="no"?>
<!DOCTYPE svg PUBLIC "-//W3C//DTD SVG 20010904//EN"
 "http://www.w3.org/TR/2001/REC-SVG-20010904/DTD/svg10.dtd">
<svg version="1.0" xmlns="http://www.w3.org/2000/svg"
 width="1000.000000pt" height="1000.000000pt" viewBox="0 0 1000.000000 1000.000000"
 preserveAspectRatio="xMidYMid meet">
<metadata>
Created by potrace 1.14, written by Peter Selinger 2001-2017
</metadata>
<g transform="translate(0.000000,1000.000000) scale(0.100000,-0.100000)"
fill="#000000" stroke="none">
<path d="M4690 8734 c-132 -15 -197 -28 -329 -65 -105 -31 -261 -93 -339 -137
-24 -13 -108 -41 -185 -62 -171 -47 -370 -114 -521 -177 -134 -57 -457 -219
-468 -236 -4 -7 -8 -9 -8 -5 0 17 -454 -290 -490 -332 -3 -3 -29 -24 -59 -48
-100 -79 -302 -271 -431 -411 -13 -14 -163 -193 -194 -232 -91 -113 -326 -471
-326 -497 0 -7 -3 -12 -7 -12 -5 0 -13 -10 -19 -23 -6 -12 -31 -62 -56 -112
-142 -278 -284 -657 -324 -859 -2 -10 -8 -33 -13 -50 -6 -17 -13 -46 -16 -64
-3 -18 -12 -63 -20 -101 -12 -59 -33 -184 -49 -302 -29 -201 -29 -825 -1 -970
2 -10 6 -43 10 -74 3 -31 10 -80 16 -108 5 -29 12 -68 15 -87 39 -253 172
-672 295 -938 22 -45 39 -87 39 -92 0 -6 5 -10 12 -10 6 0 8 -3 5 -7 -12 -11
145 -291 262 -468 36 -55 68 -102 71 -105 3 -3 30 -39 60 -80 30 -41 57 -77
60 -80 3 -3 34 -41 70 -85 80 -99 119 -142 245 -269 194 -196 343 -321 575
-483 576 -403 1258 -648 1980 -714 129 -11 556 -15 638 -5 26 3 81 8 122 11
41 4 82 8 90 10 8 2 40 7 70 10 183 21 491 93 707 164 429 141 854 364 1208
635 195 149 441 378 580 541 28 32 67 77 87 99 21 23 38 44 38 47 0 4 13 22
30 40 16 19 30 37 30 41 0 4 8 15 18 25 37 36 242 341 242 359 0 4 6 15 14 23
33 39 160 287 246 486 76 172 189 525 224 696 78 380 91 512 91 904 0 231 -9
446 -20 465 -1 3 -6 34 -9 70 -40 400 -230 993 -444 1385 -256 467 -572 862
-942 1175 -36 30 -67 58 -70 61 -7 7 -208 160 -240 182 -70 48 -203 134 -262
170 -112 69 -320 175 -453 232 -60 26 -123 53 -140 60 -85 37 -315 112 -473
155 -63 17 -135 42 -160 56 -58 32 -194 89 -292 121 -233 77 -535 106 -790 77z"/>
</g>
</svg>
